<svg width="2077" height="481" viewBox="0 0 2077 481" fill="none" xmlns="http://www.w3.org/2000/svg">
<path fill-rule="evenodd" clip-rule="evenodd" d="M1576.7 135.416C1502.48 168.167 1536.74 232.335 1520.49 274.866C1504.67 315.915 1450.22 415.057 1282.89 406.314C1198.56 374.009 1510.39 226.259 1320.65 197.654C1235.01 185.948 1160.78 244.928 1150.68 270.121C1139.7 297.391 1129.6 324.507 1082.17 343.033C1024.19 365.854 979.401 370.154 991.251 334.586C996.526 318.729 1008.38 303.908 999.599 291.017C982.914 266.713 905.611 257.378 869.157 283.016C843.242 301.244 874.862 326.139 826.998 344.073C766.831 366.746 761.117 357.708 752.779 338.295C728.627 279.757 650.441 321.252 591.597 346.444C563.932 358.299 551.629 364.97 507.268 353.409C434.8 334.441 400.106 353.557 335.546 370.6C247.702 393.718 279.774 383.198 216.965 374.156C140.543 363.338 41.2891 402.165 0 420.393C48.7454 427.209 80.8179 408.98 123.858 393.57C160.312 380.381 163.826 379.493 211.702 388.531C242.881 394.309 261.329 399.349 314.468 388.679C346.086 382.306 372.002 373.711 403.181 365.709C451.057 353.557 449.294 352.668 494.967 364.375C527.028 372.524 548.106 377.266 601.686 361.855C634.629 352.372 641.655 343.181 655.267 335.775C690.839 316.659 707.966 320.513 719.388 338.592C734.322 362.156 754.521 392.388 845.877 352.376C906.923 325.552 875.744 306.882 892.871 292.211C920.536 268.647 956.55 278.874 967.529 300.212C977.188 318.589 953.476 328.221 957.871 346.301C966.219 381.571 1022.87 378.163 1090.51 357.714C1198.11 325.111 1159.9 257.535 1229.29 225.224C1299.55 192.474 1348.75 213.072 1347.43 246.711C1346.11 280.796 1296.48 321.697 1266.18 345.558C1175.27 417.731 1298.68 443.811 1426.48 394.464C1603.92 325.996 1516.96 210.703 1588.1 154.385C1661.88 95.9954 1706.24 156.904 1713.71 186.838C1734.35 270.716 1568.33 355.033 1578.88 417.722C1585.03 453.881 1626.32 465.293 1721.18 443.212C1960.1 387.788 1835.81 149.197 1910.02 48.5685C1953.06 -9.37497 2001.38 8.10964 2031.68 54.7931C2093.17 149.192 2034.75 337.55 1942.96 426.911C1928.47 442.619 1878.4 468.997 1924.08 481C2015.43 362.152 2086.14 292.352 2076.04 163.268C2074.28 137.927 2075.16 -19.6003 1943.84 2.03384C1823.07 22.0424 1872.26 234.851 1827.45 329.1C1816.03 353.405 1808.57 381.859 1776.95 403.644C1753.23 419.947 1666.71 463.809 1610.93 435.655C1536.27 397.866 1811.2 258.566 1722.48 154.091C1696.57 123.413 1655.29 99.5558 1574.91 134.975L1576.7 135.416Z" fill="white"/>
</svg>
